<svg width="24" height="23" viewBox="0 0 24 23" fill="none" xmlns="http://www.w3.org/2000/svg">
<path d="M17.9564 5.77371H17.9668M7.0245 1.08862H17.4358C20.3108 1.08862 22.6415 3.41927 22.6415 6.29428V16.7056C22.6415 19.5806 20.3108 21.9112 17.4358 21.9112H7.0245C4.1495 21.9112 1.81885 19.5806 1.81885 16.7056V6.29428C1.81885 3.41927 4.1495 1.08862 7.0245 1.08862ZM16.3947 10.844C16.5232 11.7105 16.3752 12.5954 15.9717 13.3729C15.5683 14.1505 14.93 14.781 14.1475 15.1748C13.3651 15.5686 12.4784 15.7057 11.6136 15.5665C10.7488 15.4274 9.94983 15.019 9.33044 14.3997C8.71105 13.7803 8.30273 12.9813 8.16357 12.1165C8.02441 11.2517 8.16149 10.365 8.55531 9.58256C8.94913 8.80013 9.57963 8.1618 10.3571 7.75836C11.1347 7.35492 12.0196 7.20692 12.8861 7.33541C13.7699 7.46647 14.5882 7.87832 15.22 8.51013C15.8518 9.14193 16.2636 9.96018 16.3947 10.844Z" stroke="#FEB46B" stroke-width="2.08226" stroke-linecap="round" stroke-linejoin="round"/>
</svg>
