<svg width="25" height="24" viewBox="0 0 25 24" fill="none" xmlns="http://www.w3.org/2000/svg">
<path d="M4.38812 20C3.83812 20 3.36729 19.8042 2.97562 19.4125C2.58396 19.0208 2.38812 18.55 2.38812 18V6C2.38812 5.45 2.58396 4.97917 2.97562 4.5875C3.36729 4.19583 3.83812 4 4.38812 4H20.3881C20.9381 4 21.409 4.19583 21.8006 4.5875C22.1923 4.97917 22.3881 5.45 22.3881 6V18C22.3881 18.55 22.1923 19.0208 21.8006 19.4125C21.409 19.8042 20.9381 20 20.3881 20H4.38812ZM12.3881 13L4.38812 8V18H20.3881V8L12.3881 13ZM12.3881 11L20.3881 6H4.38812L12.3881 11ZM4.38812 8V6V18V8Z" fill="#FEB46B"/>
</svg>
