<svg width="24" height="24" viewBox="0 0 24 24" fill="none" xmlns="http://www.w3.org/2000/svg">
<path d="M22.7756 17.5859V20.7198C22.7768 21.0107 22.7172 21.2987 22.6006 21.5652C22.4841 21.8318 22.3131 22.0711 22.0988 22.2678C21.8844 22.4644 21.6313 22.6142 21.3557 22.7074C21.0801 22.8006 20.7881 22.8352 20.4983 22.809C17.2838 22.4597 14.1961 21.3613 11.4832 19.602C8.95923 17.9982 6.81932 15.8583 5.21547 13.3343C3.45004 10.6091 2.35137 7.50631 2.00848 4.27738C1.98237 3.98851 2.01671 3.69736 2.10929 3.42249C2.20187 3.14761 2.35067 2.89502 2.54622 2.6808C2.74176 2.46658 2.97978 2.29543 3.2451 2.17823C3.51042 2.06104 3.79723 2.00037 4.08728 2.0001H7.22115C7.72811 1.99511 8.21959 2.17464 8.60398 2.50521C8.98838 2.83579 9.23945 3.29486 9.3104 3.79685C9.44267 4.79976 9.68798 5.78449 10.0416 6.73225C10.1822 7.10614 10.2126 7.51249 10.1293 7.90315C10.046 8.2938 9.85242 8.65238 9.57156 8.9364L8.24488 10.2631C9.73196 12.8783 11.8974 15.0437 14.5126 16.5308L15.8393 15.2041C16.1233 14.9233 16.4819 14.7297 16.8726 14.6464C17.2632 14.5631 17.6696 14.5935 18.0435 14.7341C18.9912 15.0877 19.9759 15.333 20.9788 15.4653C21.4863 15.5369 21.9497 15.7925 22.281 16.1835C22.6123 16.5745 22.7883 17.0736 22.7756 17.5859Z" stroke="#FEB46B" stroke-width="2.08925" stroke-linecap="round" stroke-linejoin="round"/>
</svg>
