<svg width="26" height="19" viewBox="0 0 26 19" fill="none" xmlns="http://www.w3.org/2000/svg">
<path d="M23.5205 3.97144C23.3968 3.47733 23.1449 3.02461 22.7903 2.659C22.4357 2.29339 21.9908 2.02784 21.5007 1.88918C19.71 1.4519 12.547 1.4519 12.547 1.4519C12.547 1.4519 5.38399 1.4519 3.59324 1.93082C3.10313 2.06949 2.65828 2.33503 2.30364 2.70064C1.949 3.06625 1.69712 3.51898 1.57345 4.01309C1.24572 5.83044 1.0854 7.67403 1.09453 9.52067C1.08285 11.3812 1.24317 13.2389 1.57345 15.0699C1.70979 15.5487 1.96732 15.9842 2.32113 16.3343C2.67495 16.6845 3.11309 16.9375 3.59324 17.0689C5.38399 17.5478 12.547 17.5478 12.547 17.5478C12.547 17.5478 19.71 17.5478 21.5007 17.0689C21.9908 16.9302 22.4357 16.6647 22.7903 16.2991C23.1449 15.9334 23.3968 15.4807 23.5205 14.9866C23.8457 13.1829 24.006 11.3534 23.9994 9.52067C24.0111 7.66012 23.8508 5.80248 23.5205 3.97144Z" stroke="#FEB46B" stroke-width="2.08226" stroke-linecap="round" stroke-linejoin="round"/>
<path d="M10.2044 12.9252L16.1909 9.52067L10.2044 6.11617V12.9252Z" stroke="#FEB46B" stroke-width="2.08226" stroke-linecap="round" stroke-linejoin="round"/>
</svg>
